<svg width="51" height="36" viewBox="0 0 51 36" fill="none" xmlns="http://www.w3.org/2000/svg">
<path d="M24.5986 9.21517C24.5986 9.21517 28.0531 6.81819 29.1635 4.30664C29.1635 4.30664 29.8743 8.7863 24.5986 9.21517Z" fill="url(#paint0_linear_1007_13942)"/>
<path d="M13.8125 9.92872C15.9099 10.622 19.1822 11.371 23.0979 10.8981C24.4932 10.7307 25.7357 10.434 26.8079 10.0991C26.0647 10.7248 25.3304 11.1448 24.6782 11.4298C19.8725 13.5301 14.7172 10.478 13.8154 9.92578H13.8125V9.92872Z" fill="url(#paint1_linear_1007_13942)"/>
<path d="M28.7044 15.7979C28.6193 15.8595 25.3381 18.1772 19.5101 17.2725C19.4631 17.2666 19.422 17.2578 19.375 17.2519C19.375 17.2519 19.4455 17.249 19.5777 17.2372C20.7674 17.155 26.8773 16.6967 28.7044 15.7949V15.7979Z" fill="url(#paint2_linear_1007_13942)"/>
<path d="M50.2159 7.55533C49.5226 6.0719 47.3636 6.02196 46.6557 6.00434C44.7551 5.95734 41.9821 6.3774 38.7979 7.13527C35.6019 3.30773 30.7962 0.872559 25.4353 0.872559C15.8386 0.872559 8.02779 8.68038 8.02779 18.2771C8.02779 19.0673 8.08067 19.8516 8.18935 20.6271C7.92204 20.8063 7.66061 20.9826 7.40798 21.1617C0.334527 26.1055 0.175904 28.2558 0.666463 29.4425C1.1394 30.5793 2.52883 31.1609 4.91994 31.2167C7.01142 31.2667 9.76678 30.9289 12.8276 30.2914C16.0324 33.649 20.5444 35.6847 25.4353 35.6847C35.035 35.6847 42.8458 27.8798 42.8458 18.2771C42.8458 17.8512 42.8311 17.4282 42.7988 17.0081C45.2897 15.1869 49.2935 11.9733 50.2012 9.52344C50.4773 8.78613 50.4832 8.12226 50.2159 7.55533ZM32.9876 3.93635C34.2154 4.58554 35.3611 5.39334 36.3862 6.33334C36.6271 6.55365 36.8592 6.78277 37.0883 7.01483C38.087 8.05176 38.9507 9.21794 39.6468 10.4781C40.0493 11.2125 40.3959 11.9762 40.6808 12.7605C40.1785 13.1336 39.6233 13.5214 39.0329 13.915C38.3925 13.2394 37.0619 11.1185 37.0149 11.0451C37.3027 11.9968 38.184 13.771 38.4513 14.3027C37.9813 14.6112 37.4849 14.9255 36.9737 15.2398C36.7329 14.3791 36.2394 13.3363 35.4786 11.7207C35.3376 11.424 35.1907 11.1126 35.035 10.7807C34.9704 10.6426 34.9057 10.5016 34.8382 10.3606C34.6707 10.0023 34.4945 9.62038 34.3036 9.20913C34.1479 8.86838 34.0333 8.51589 33.8776 8.17514C33.8159 8.03708 33.766 7.89608 33.7161 7.75508C33.6368 7.52889 33.5633 7.30271 33.4928 7.07652C33.3753 6.67702 33.2725 6.27165 33.1903 5.86334C33.1227 5.52847 33.0698 5.19359 33.0346 4.85578C33.0081 4.59435 32.9905 4.32997 32.9876 4.0656C32.9876 4.05385 32.9934 3.94223 32.9876 3.93635ZM40.249 9.14451C40.3401 9.11807 40.4311 9.09163 40.5193 9.06813C41.7295 8.83901 43.6565 8.56288 43.9385 9.18563C44.1676 9.69088 43.2805 10.719 41.6737 12.0027C41.286 11.001 40.8071 10.0434 40.249 9.14451ZM35.8017 15.9536C33.1433 17.5369 30.0941 19.1496 27.0744 20.5184C24.9771 21.4731 22.7828 22.3544 20.6472 23.1299C20.4856 22.604 20.3094 22.0782 20.1067 21.5495C24.5159 20.1366 28.6988 18.1919 32.544 15.7656C33.4135 15.2163 34.2771 14.6376 35.1172 14.0354C35.4874 14.8638 35.7136 15.466 35.8017 15.9536ZM25.4353 2.06518C26.2284 2.06518 27.0098 2.12393 27.7706 2.23555C27.0069 3.62204 25.3824 5.87509 22.4303 7.11764C18.7437 8.67157 15.3127 7.65227 13.7853 7.02071C16.7315 3.96866 20.8675 2.06518 25.4353 2.06518ZM13.0891 7.78739C14.0203 8.20157 15.959 8.91245 18.3501 8.91245C19.7219 8.91245 21.2465 8.67745 22.8121 8.01651C26.2431 6.57127 28.0291 3.88054 28.784 2.41474C29.7945 2.62917 30.7756 2.93467 31.7098 3.33123C31.6334 4.18604 31.6481 6.11009 32.7261 8.8302C32.7731 8.94476 32.8172 9.05932 32.8701 9.17682C32.9464 9.36482 33.0287 9.55575 33.1168 9.75256C33.2901 10.1227 33.4488 10.4693 33.6015 10.7983C33.672 10.9364 33.7308 11.0744 33.7954 11.2037C33.9716 11.5914 34.1391 11.9469 34.2947 12.2759C34.4622 12.6225 34.6091 12.9397 34.7471 13.2305C33.8747 13.8592 32.9846 14.4584 32.0828 15.0312C28.2817 17.4311 24.1399 19.3493 19.7748 20.7476C19.3577 19.7811 18.8583 18.8264 18.262 17.907C18.1856 17.7866 18.1034 17.6661 18.0211 17.5486C17.648 16.9964 17.2339 16.453 16.7815 15.936C16.6963 15.8332 16.6111 15.7392 16.5171 15.6393C16.0148 15.0812 15.4596 14.5495 14.8604 14.0384C13.6266 13.0102 12.2372 12.1495 10.7185 11.4798C11.3413 10.1403 12.1403 8.89776 13.0891 7.78739ZM10.2192 12.6812C11.6145 13.304 12.8923 14.0942 14.0203 15.04C14.4902 15.4366 14.9309 15.8478 15.3362 16.2796C15.4273 16.3766 15.5213 16.4765 15.6065 16.5763C16.0618 17.0757 16.4789 17.6045 16.8549 18.1479C16.9372 18.2683 17.0253 18.3917 17.1046 18.518C18.1621 20.1248 18.9053 21.8521 19.4223 23.5646C18.2708 23.9612 17.1457 24.3254 16.0736 24.6456C16.0148 24.0875 15.9237 23.4941 15.7827 22.8802C15.5301 21.7434 15.1541 20.7182 14.7311 19.8105C14.6636 19.6636 14.596 19.5197 14.5226 19.3816C14.2171 18.7765 13.891 18.2243 13.562 17.7337C13.4915 17.6221 13.4151 17.5105 13.3417 17.4047C13.1478 17.1315 12.9569 16.873 12.7748 16.638C12.9128 16.9024 13.0538 17.1873 13.1948 17.4928C13.2477 17.6133 13.3035 17.7337 13.3564 17.8541C13.5914 18.3976 13.8176 19.0027 14.0203 19.6578C14.0673 19.8134 14.1143 19.9691 14.1583 20.1336C14.3786 20.9238 14.5519 21.7904 14.6577 22.7186C14.7517 23.547 14.7811 24.3166 14.7576 25.0245C13.421 25.3976 12.1873 25.6913 11.1151 25.897C10.5834 24.8953 10.1545 23.8319 9.83728 22.7098C9.79909 22.5864 9.76678 22.4689 9.7374 22.3485C9.72565 22.3074 9.71684 22.2604 9.70509 22.2134C9.55234 21.5965 9.43484 20.9737 9.35259 20.3392C9.33497 20.1894 9.31734 20.0367 9.30266 19.8869C9.24978 19.3523 9.22335 18.8176 9.22335 18.2771C9.22335 16.312 9.57878 14.4261 10.2192 12.6812ZM9.8784 26.0996C8.26573 26.3111 7.20823 26.2318 7.00261 25.7765C6.76174 25.2507 7.66061 24.3078 8.65347 23.453C8.69754 23.4236 8.7416 23.3972 8.78566 23.3707C9.07353 24.3225 9.44072 25.2302 9.8784 26.0996ZM20.4298 33.7048C18.0887 32.944 15.9649 31.6662 14.2141 29.9859C16.194 29.5306 18.2708 28.9608 20.3505 28.3057C20.5767 30.5117 20.5268 32.4358 20.4298 33.7048ZM25.4353 34.4891C24.1604 34.4891 22.912 34.3452 21.7076 34.0602C21.8222 32.6972 21.9074 30.4706 21.6166 27.8974C24.0224 27.1013 26.4047 26.1848 28.6254 25.1978C31.4983 23.92 34.5121 22.3309 37.3674 20.6036L39.4706 26.3846C36.6653 31.2285 31.4278 34.4891 25.4353 34.4891ZM40.2843 24.7925L38.5012 19.9074C39.5822 19.2289 40.6368 18.5298 41.6414 17.8306C41.6473 17.9775 41.6473 18.1303 41.6473 18.2771C41.6473 20.5948 41.1596 22.7979 40.2843 24.7925ZM42.6401 15.607C42.2818 15.8802 41.9175 16.1533 41.5444 16.4265C40.4635 17.2167 39.309 18.0098 38.0958 18.7912C37.7257 19.035 37.3497 19.27 36.9679 19.505C34.2066 21.2176 31.1986 22.8537 28.1818 24.2079C26.0111 25.1832 23.7345 26.0556 21.4697 26.8135C21.0526 26.9545 20.6325 27.0866 20.2154 27.2218C17.8419 27.9738 15.5037 28.5877 13.3123 29.0548C13.0626 29.1106 11.9728 29.325 11.9728 29.325C6.18893 30.4266 1.73277 30.3825 1.09534 28.8374C0.457902 27.2981 3.60394 24.2784 8.25691 21.0854C8.33623 21.6112 8.44785 22.1311 8.58004 22.6481C8.60354 22.7421 8.62997 22.8332 8.65935 22.9272C8.46548 23.0652 8.28335 23.1945 8.11885 23.3237C6.98205 24.1903 5.99505 25.1244 6.40924 26.1349C6.78817 27.0543 8.00429 27.0543 8.46254 27.0543C8.9531 27.0543 9.57291 26.9956 10.2985 26.8898C10.8448 26.8135 11.5528 26.6725 11.5528 26.6725C13.7383 26.2465 16.5729 25.4798 19.6632 24.4312C20.0685 24.2931 20.4798 24.1521 20.891 24.0023C23.0295 23.2415 25.2591 22.3544 27.4563 21.3615C30.2792 20.0866 33.2784 18.5121 36.0132 16.8877C36.398 16.6556 36.774 16.4265 37.15 16.1945C37.6758 15.8743 38.184 15.5482 38.6745 15.2251C39.4148 14.7404 40.2138 14.1999 40.9775 13.6447C41.3183 13.3921 41.662 13.1336 41.988 12.8751C43.2511 11.8734 44.2704 10.8835 44.5407 10.1374C44.7111 9.6615 44.62 9.29726 44.5113 9.07401C44.2587 8.55114 43.7064 8.2897 42.8693 8.2897C42.1819 8.29557 41.1949 8.46889 40.0081 8.76557C39.7144 8.31614 39.403 7.88139 39.0652 7.46427C44.4026 6.22465 48.5827 5.96909 49.2847 7.44077C49.9897 8.92126 47.1492 12.1495 42.6401 15.607Z" fill="url(#paint3_linear_1007_13942)"/>
<path d="M19.375 17.252C19.3985 17.2579 19.4191 17.2608 19.4426 17.2637C19.4661 17.2667 19.4866 17.2696 19.5101 17.2755C19.5101 17.2755 19.5131 17.2755 19.5131 17.2726C19.5366 17.2608 19.5571 17.2491 19.5777 17.2373C19.4484 17.2491 19.375 17.252 19.375 17.252Z" fill="url(#paint4_linear_1007_13942)"/>
<path d="M42.6404 15.607C42.2821 15.8802 41.9178 16.1533 41.5447 16.4265C40.4638 17.2167 39.3093 18.0098 38.0961 18.7912C37.726 19.035 37.35 19.27 36.9681 19.505C34.2069 21.2176 31.1989 22.8537 28.1821 24.2079C26.0113 25.1832 23.7348 26.0556 21.47 26.8135C21.0529 26.9545 20.6328 27.0866 20.2157 27.2218C17.8422 27.9738 15.504 28.5877 13.3126 29.0548C13.0629 29.1106 11.9731 29.325 11.9731 29.325C6.18922 30.4266 1.73307 30.3825 1.09563 28.8374C0.458199 27.2981 3.60424 24.2784 8.25721 21.0854C8.33652 21.6112 8.44815 22.1311 8.58033 22.6481C8.60383 22.7421 8.63027 22.8332 8.65965 22.9272C8.46577 23.0652 8.28365 23.1945 8.11915 23.3237C6.98234 24.1903 5.99535 25.1244 6.40954 26.1349C6.78847 27.0543 8.00459 27.0543 8.46283 27.0543C8.95339 27.0543 9.5732 26.9956 10.2988 26.8898C10.8451 26.8135 11.5531 26.6725 11.5531 26.6725C13.7385 26.2465 16.5732 25.4798 19.6634 24.4312C20.0688 24.2931 20.4801 24.1521 20.8913 24.0023C23.0298 23.2415 25.2593 22.3544 27.4566 21.3615C30.2795 20.0866 33.2787 18.5121 36.0135 16.8877C36.3983 16.6556 36.7743 16.4265 37.1503 16.1945C37.6761 15.8743 38.1843 15.5482 38.6748 15.2251C39.4151 14.7404 40.2141 14.1999 40.9778 13.6447C41.3186 13.3921 41.6622 13.1336 41.9883 12.8751C43.2514 11.8734 44.2707 10.8835 44.541 10.1374C44.7113 9.66151 44.6203 9.29726 44.5116 9.07401C44.259 8.55114 43.7067 8.2897 42.8696 8.2897C42.1822 8.29558 41.1952 8.46889 40.0084 8.76558C39.7147 8.31614 39.4033 7.88139 39.0655 7.46427C44.4029 6.22465 48.5829 5.96909 49.285 7.44077C49.99 8.92126 47.1495 12.1496 42.6404 15.607Z" fill="url(#paint5_linear_1007_13942)"/>
<defs>
<linearGradient id="paint0_linear_1007_13942" x1="24.5986" y1="6.75944" x2="29.1958" y2="6.75944" gradientUnits="userSpaceOnUse">
<stop stop-color="#EFA2C8"/>
<stop offset="1" stop-color="#520D2D"/>
</linearGradient>
<linearGradient id="paint1_linear_1007_13942" x1="13.8125" y1="11.045" x2="26.8079" y2="11.045" gradientUnits="userSpaceOnUse">
<stop stop-color="#EFA2C8"/>
<stop offset="1" stop-color="#520D2D"/>
</linearGradient>
<linearGradient id="paint2_linear_1007_13942" x1="19.3721" y1="16.638" x2="28.7044" y2="16.638" gradientUnits="userSpaceOnUse">
<stop stop-color="#EFA2C8"/>
<stop offset="1" stop-color="#520D2D"/>
</linearGradient>
<linearGradient id="paint3_linear_1007_13942" x1="0.499027" y1="18.2801" x2="50.4127" y2="18.2801" gradientUnits="userSpaceOnUse">
<stop stop-color="#EFA2C8"/>
<stop offset="1" stop-color="#520D2D"/>
</linearGradient>
<linearGradient id="paint4_linear_1007_13942" x1="19.375" y1="17.2549" x2="19.5777" y2="17.2549" gradientUnits="userSpaceOnUse">
<stop stop-color="#EFA2C8"/>
<stop offset="1" stop-color="#520D2D"/>
</linearGradient>
<linearGradient id="paint5_linear_1007_13942" x1="1.01338" y1="18.2595" x2="49.3908" y2="18.2595" gradientUnits="userSpaceOnUse">
<stop stop-color="#EFA2C8"/>
<stop offset="1" stop-color="#520D2D"/>
</linearGradient>
</defs>
</svg>
