<svg width="913" height="180" viewBox="0 0 913 180" fill="none" xmlns="http://www.w3.org/2000/svg">
<path d="M264.117 96.0018H281.198V31.4075C281.198 26.8743 284.88 23.192 289.413 23.192H329.686C336.726 23.192 342.435 28.901 342.435 35.9407C342.435 42.9803 336.726 48.6893 329.686 48.6893H302.487L288.825 66.4354H328.124C345.111 66.4354 358.881 52.6656 358.881 35.6776C358.881 18.6897 345.111 4.91992 328.124 4.91992H287.247C274.468 4.91992 264.117 15.2705 264.117 28.0501V96.0018Z" fill="black"/>
<path d="M736.36 78.9211H805.209L790.665 96.0018H733.018C720.238 96.0018 709.888 85.6513 709.888 72.8717V26.3328C709.888 19.8192 712.58 13.94 716.912 9.73169C721.074 5.69358 726.752 3.20264 733.018 3.20264H739.253C739.392 3.20264 739.531 3.20264 739.671 3.20264H808.504L799.577 13.677L793.961 20.2834H736.344C736.344 20.2834 736.19 20.2834 736.128 20.2834C731.687 20.3917 728.129 24.0275 728.129 28.4834V42.6245H793.961L785.034 53.0988L779.417 59.7053H728.129V70.6747C728.129 75.2079 731.796 78.8902 736.344 78.8902L736.36 78.9211Z" fill="black"/>
<path d="M454.172 77.7298L441.222 96.0018H396.896C384.116 96.0018 373.766 85.6358 373.766 72.8717V15.9204L390.846 0V69.5143C390.846 74.063 394.513 77.7298 399.062 77.7298H454.172Z" fill="black"/>
<path d="M569.265 66.0641L526.084 3.20264L475.089 77.4513L461.984 96.0018H483.242L526.084 34.703L548.007 66.0641H569.265Z" fill="black"/>
<path d="M590.261 96.1875L568.848 96.0018H516.956L495.667 96.1875L507.704 78.8127H578.224L590.261 96.1875Z" fill="black"/>
<path d="M601.756 96.1876H618.945V51.1959L601.57 34.4246L601.756 55.8374V96.1876Z" fill="black"/>
<path d="M912.999 3.21826L880.339 3.38845H831.03L819.705 20.562H857.735L857.812 35.616V96.3578H875.001V20.562H901.566L912.999 3.21826Z" fill="black"/>
<path d="M691.135 3.2027V84.8468L678.975 97.0076L627.485 43.1042L598.073 12.5631L610.621 0.57251L673.946 66.8687V31.8253L673.761 3.2027H691.135Z" fill="black"/>
<path d="M535.444 66.095C529.751 66.1259 524.072 66.1569 518.379 66.1878L526.687 53.5784L535.444 66.1104V66.095Z" fill="black"/>
<path d="M376.505 149.859C375.236 150.602 373.766 150.973 372.095 150.973C370.301 150.973 368.707 150.555 367.315 149.72C365.922 148.884 364.839 147.708 364.065 146.161C363.292 144.629 362.905 142.85 362.905 140.823C362.905 138.797 363.292 136.986 364.065 135.455C364.839 133.938 365.922 132.747 367.315 131.912C368.707 131.076 370.301 130.658 372.095 130.658C373.766 130.658 375.236 131.03 376.505 131.772C377.789 132.5 378.779 133.598 379.475 135.068H386.546C385.525 131.958 383.73 129.529 381.146 127.765C378.562 126.002 375.561 125.12 372.126 125.12C369.202 125.12 366.556 125.8 364.205 127.131C361.838 128.462 359.981 130.318 358.619 132.716C357.258 135.099 356.577 137.806 356.577 140.823C356.577 143.84 357.258 146.532 358.619 148.915C359.981 151.282 361.838 153.139 364.205 154.469C366.556 155.8 369.202 156.465 372.126 156.465C375.592 156.465 378.609 155.599 381.162 153.851C383.73 152.118 385.525 149.673 386.546 146.532H379.475C378.779 148.002 377.789 149.101 376.505 149.859Z" fill="black"/>
<path d="M432.76 151.329V125.522H426.603V156.202H442.863V151.329H432.76Z" fill="black"/>
<path d="M509.406 132.716C508.014 130.318 506.126 128.446 503.744 127.1C501.346 125.754 498.7 125.089 495.807 125.089C492.914 125.089 490.299 125.754 487.885 127.1C485.487 128.446 483.584 130.318 482.176 132.716C480.768 135.099 480.057 137.791 480.057 140.777C480.057 143.763 480.768 146.501 482.176 148.884C483.584 151.282 485.487 153.139 487.885 154.5C490.299 155.846 492.929 156.512 495.807 156.512C498.685 156.512 501.315 155.846 503.713 154.5C506.111 153.139 508.014 151.282 509.406 148.884C510.799 146.501 511.495 143.794 511.495 140.777C511.495 137.76 510.799 135.099 509.406 132.716ZM503.976 146.192C503.187 147.739 502.088 148.931 500.68 149.766C499.272 150.601 497.648 151.019 495.807 151.019C493.966 151.019 492.326 150.601 490.902 149.766C489.479 148.931 488.365 147.739 487.576 146.192C486.787 144.629 486.4 142.835 486.4 140.777C486.4 138.719 486.787 136.924 487.576 135.393C488.365 133.846 489.479 132.67 490.902 131.85C492.326 131.03 493.95 130.627 495.807 130.627C497.663 130.627 499.272 131.03 500.68 131.85C502.088 132.67 503.187 133.846 503.976 135.393C504.765 136.924 505.167 138.719 505.167 140.777C505.167 142.835 504.765 144.629 503.976 146.192Z" fill="black"/>
<path d="M549.216 125.522V130.488H557.4V156.202H563.558V130.488H571.727V125.522H549.216Z" fill="black"/>
<path d="M630.286 125.522V138.147H617.135V125.522H610.993V156.202H617.135V143.144H630.286V156.202H636.444V125.522H630.286Z" fill="black"/>
<path d="M677.289 125.522V156.202H683.431V125.522H677.289Z" fill="black"/>
<path d="M744.375 125.475V146.579L730.435 125.475H724.277V156.202H730.435V135.145L744.375 156.202H750.533V125.475H744.375Z" fill="black"/>
<path d="M803.941 139.152V143.856H814.492C814.028 146.084 813.038 147.817 811.553 149.07C810.052 150.308 808.134 150.926 805.782 150.926C803.879 150.926 802.208 150.524 800.785 149.704C799.346 148.884 798.216 147.708 797.412 146.192C796.607 144.66 796.205 142.866 796.205 140.823C796.205 138.781 796.607 137.064 797.396 135.548C798.185 134.016 799.284 132.855 800.692 132.035C802.1 131.215 803.709 130.798 805.519 130.798C807.159 130.798 808.598 131.138 809.835 131.803C811.058 132.484 812.032 133.459 812.729 134.758H819.815C818.84 131.711 817.092 129.343 814.539 127.657C811.986 125.971 808.985 125.12 805.519 125.12C802.595 125.12 799.934 125.8 797.551 127.131C795.153 128.462 793.281 130.318 791.919 132.716C790.558 135.099 789.877 137.806 789.877 140.823C789.877 143.84 790.558 146.532 791.919 148.915C793.281 151.282 795.153 153.139 797.551 154.469C799.934 155.8 802.61 156.465 805.565 156.465C808.211 156.465 810.594 155.924 812.713 154.825C814.833 153.727 816.581 152.272 817.927 150.447C819.273 148.637 820.155 146.656 820.557 144.521V139.152H803.941Z" fill="black"/>
<path d="M869.107 137.93C883.419 137.002 897.73 136.058 912.041 135.13V141.519C897.73 140.901 883.419 140.297 869.107 139.678V137.93Z" fill="url(#paint0_linear_1004_13911)"/>
<path d="M308.011 138.982C293.7 139.91 279.388 140.854 265.077 141.782V135.393C279.388 136.011 293.7 136.615 308.011 137.234V138.982Z" fill="url(#paint1_linear_1004_13911)"/>
<path d="M72.0247 157.742L69.6567 155.559C69.3483 156.237 68.7933 156.755 68.1026 157.027C67.4119 157.286 66.6349 157.261 65.9689 156.965C65.3029 156.669 64.7725 156.102 64.5012 155.411C64.2422 154.72 64.2668 153.943 64.5628 153.277L61.3561 152.944C61.0231 152.907 60.6901 152.993 60.4187 153.191C60.1474 153.376 59.95 153.66 59.8637 153.98L59.2347 156.361C59.1977 156.521 59.21 156.694 59.284 156.842C59.358 156.99 59.4814 157.113 59.6294 157.175L60.9984 157.791L58.1246 164.156C57.804 164.859 58.1246 165.685 58.8277 166.006L63.9215 168.3C64.2545 168.448 64.6492 168.46 64.9945 168.337C65.3399 168.201 65.6235 167.942 65.7715 167.609L68.6453 161.245L70.0143 161.861C70.1623 161.935 70.335 161.948 70.4953 161.898C70.6557 161.849 70.7914 161.75 70.89 161.615L72.2591 159.567C72.4441 159.296 72.5304 158.951 72.4811 158.63C72.4441 158.297 72.2837 157.989 72.0371 157.767L72.0247 157.742Z" stroke="#520D2D" stroke-width="1.23337" stroke-miterlimit="10"/>
<path d="M110.654 175.379L113.429 175.663M102.588 171.753L105.363 172.037M102.378 173.838L102.551 172.185C102.699 170.717 102.058 169.94 102.255 168.213C102.465 166.326 103.71 164.143 105.807 164.365C107.102 164.501 107.423 165.796 107.299 166.968C107.077 169.126 105.511 170.766 105.301 172.863L105.178 174.134C105.141 174.504 104.956 174.837 104.672 175.071C104.389 175.305 104.019 175.416 103.649 175.379C103.279 175.342 102.946 175.157 102.711 174.874C102.477 174.59 102.366 174.22 102.403 173.85L102.378 173.838ZM113.22 177.747L113.392 176.095C113.54 174.627 114.33 173.998 114.478 172.259C114.65 170.372 113.861 167.979 111.776 167.769C110.481 167.634 109.914 168.842 109.791 170.026C109.569 172.185 110.79 174.097 110.568 176.193L110.444 177.464C110.407 177.834 110.518 178.204 110.753 178.487C110.987 178.771 111.32 178.956 111.69 178.993C112.06 179.03 112.43 178.919 112.714 178.685C112.998 178.45 113.183 178.117 113.22 177.747Z" stroke="#520D2D" stroke-width="1.23337" stroke-miterlimit="10"/>
<path d="M156.918 157.717C157.486 158.728 157.128 159.999 156.117 160.566M156.918 157.717C156.351 156.706 155.081 156.348 154.069 156.915M156.918 157.717L157.831 157.199M156.117 160.566C155.105 161.134 153.835 160.776 153.268 159.764M156.117 160.566L156.635 161.479M154.069 156.915C153.058 157.483 152.7 158.753 153.268 159.764M154.069 156.915L153.551 156.003M153.268 159.764L152.355 160.282C151.812 160.591 151.196 160.727 150.566 160.677C149.937 160.628 149.358 160.394 148.864 160.011C148.371 159.629 148.013 159.111 147.816 158.519C147.619 157.927 147.606 157.298 147.779 156.693C147.952 156.101 148.285 155.559 148.766 155.152C149.234 154.745 149.826 154.498 150.443 154.424C151.06 154.35 151.689 154.461 152.244 154.745C152.799 155.028 153.255 155.472 153.564 156.015M152.367 160.27C151.825 160.579 151.381 161.035 151.097 161.59C150.813 162.145 150.702 162.774 150.776 163.391C150.85 164.007 151.097 164.599 151.504 165.068C151.911 165.549 152.454 165.882 153.046 166.055C153.65 166.227 154.279 166.215 154.871 166.018C155.463 165.82 155.981 165.463 156.363 164.969C156.746 164.476 156.98 163.884 157.029 163.267C157.079 162.651 156.943 162.034 156.635 161.491C156.943 162.034 157.399 162.478 157.954 162.762C158.509 163.045 159.138 163.156 159.755 163.082C160.372 163.008 160.951 162.749 161.432 162.355C161.901 161.948 162.247 161.417 162.419 160.813C162.592 160.208 162.58 159.579 162.382 158.987C162.185 158.395 161.827 157.877 161.334 157.495C160.84 157.113 160.248 156.878 159.632 156.829C159.015 156.78 158.386 156.915 157.843 157.224M153.564 156.003C153.255 155.46 153.12 154.843 153.169 154.227C153.218 153.61 153.453 153.018 153.835 152.525C154.217 152.031 154.735 151.674 155.327 151.476C155.919 151.279 156.548 151.267 157.153 151.439C157.745 151.612 158.287 151.945 158.694 152.426C159.101 152.895 159.348 153.487 159.422 154.103C159.496 154.72 159.385 155.349 159.101 155.904C158.818 156.459 158.374 156.915 157.831 157.224M151.294 157.668L153.083 158.173M155.66 156.73L156.166 154.942M154.02 162.54L154.526 160.751M157.103 159.308L158.892 159.814" stroke="#520D2D" stroke-width="1.23337" stroke-miterlimit="10"/>
<path d="M180.166 127.377C180.178 127.895 180.302 129.523 181.547 130.917C182.805 132.323 184.421 132.582 185.186 132.705C186.555 132.927 187.949 132.742 189.207 132.162C190.465 131.595 191.525 130.658 192.253 129.486C192.981 128.314 193.338 126.945 193.289 125.564C193.24 124.183 192.783 122.851 191.982 121.728C191.538 121.111 190.588 119.779 188.763 119.261C186.962 118.756 185.445 119.36 184.964 119.582C185.025 119.792 185.099 120.088 185.099 120.458C185.099 121.05 184.89 121.494 184.68 121.888C183.447 124.281 182.805 124.984 182.078 126.094C181.979 126.242 181.745 126.6 181.313 126.908C181.251 126.945 181.202 126.982 181.14 127.019C181.14 127.019 181.066 127.069 180.98 127.106C180.857 127.167 180.561 127.278 180.166 127.377Z" stroke="#520D2D" stroke-width="1.23337" stroke-miterlimit="10"/>
<path d="M192.081 95.494L192.463 94.1497L201.319 94.7294C201.64 94.754 201.96 94.6554 202.232 94.4703C202.491 94.2853 202.688 94.0017 202.762 93.6933L204.624 87.1195C204.711 86.8111 204.686 86.4904 204.563 86.1944C204.439 85.8984 204.217 85.6641 203.934 85.5161L199.259 83L196.028 94.4087L192.081 95.5187V95.494ZM206.129 94.4334C206.499 94.5444 206.721 94.9267 206.61 95.2967C206.499 95.6667 206.117 95.8887 205.747 95.7777C205.377 95.6667 205.155 95.2844 205.266 94.9144C205.377 94.5444 205.759 94.3223 206.129 94.4334ZM208.226 87.0331C208.596 87.1441 208.818 87.5265 208.707 87.8965C208.596 88.2665 208.214 88.4885 207.844 88.3775C207.474 88.2665 207.252 87.8842 207.363 87.5141C207.474 87.1441 207.856 86.9221 208.226 87.0331Z" stroke="#520D2D" stroke-width="1.23337" stroke-miterlimit="10"/>
<path d="M181.092 125.502L179.464 123.504C179.229 123.221 179.205 122.826 179.414 122.518L180.537 120.778C180.734 120.47 181.104 120.334 181.45 120.421L183.855 121.025C184.397 121.161 184.656 121.79 184.373 122.271L182.486 125.391C182.19 125.885 181.487 125.934 181.117 125.49L181.092 125.502Z" stroke="#520D2D" stroke-width="1.23337" stroke-miterlimit="10"/>
<path d="M104.77 40.439C104.77 40.439 119.788 30.0179 124.616 19.0986C124.616 19.0986 127.706 38.5745 104.77 40.439Z" fill="url(#paint2_linear_1004_13911)"/>
<path d="M57.874 43.5421C66.9925 46.556 81.2195 49.8126 98.2433 47.7565C104.31 47.0286 109.712 45.7387 114.373 44.2828C111.142 47.003 107.949 48.8293 105.114 50.0681C84.2207 59.1994 61.8075 45.9303 57.8868 43.5293H57.874V43.5421Z" fill="url(#paint3_linear_1004_13911)"/>
<path d="M122.623 69.0577C122.253 69.3259 107.988 79.4022 82.65 75.4688C82.4456 75.4432 82.2668 75.4049 82.0625 75.3794C82.0625 75.3794 82.369 75.3666 82.9437 75.3155C88.116 74.9579 114.68 72.9656 122.623 69.0449V69.0577Z" fill="url(#paint4_linear_1004_13911)"/>
<path d="M216.146 33.2226C213.132 26.7732 203.745 26.5561 200.667 26.4795C192.404 26.2751 180.348 28.1014 166.505 31.3963C152.61 14.7557 131.716 4.16846 108.409 4.16846C66.6861 4.16846 32.7279 38.1139 32.7279 79.8369C32.7279 83.2723 32.9578 86.6822 33.4304 90.0537C32.2682 90.8327 31.1316 91.599 30.0333 92.378C-0.719411 113.872 -1.40905 123.22 0.723717 128.38C2.77985 133.322 8.82056 135.851 19.2162 136.093C28.3092 136.31 40.2884 134.842 53.5958 132.07C67.529 146.668 87.1453 155.518 108.409 155.518C150.145 155.518 184.103 121.585 184.103 79.8369C184.103 77.9851 184.039 76.146 183.899 74.3198C194.729 66.4017 212.136 52.4302 216.082 41.7792C217.282 38.5736 217.308 35.6874 216.146 33.2226ZM141.243 17.4887C146.582 20.3111 151.562 23.8231 156.02 27.9098C157.067 28.8677 158.076 29.8638 159.072 30.8727C163.414 35.3809 167.169 40.451 170.195 45.9298C171.945 49.1225 173.452 52.443 174.691 55.8529C172.507 57.4748 170.093 59.1606 167.526 60.8719C164.742 57.9345 158.957 48.7139 158.753 48.3946C160.004 52.5324 163.835 60.2461 164.998 62.5577C162.954 63.8986 160.796 65.2651 158.574 66.6316C157.527 62.8897 155.381 58.356 152.073 51.3319C151.46 50.042 150.822 48.6883 150.145 47.2452C149.864 46.6449 149.583 46.0319 149.289 45.4189C148.561 43.8609 147.795 42.2006 146.965 40.4127C146.288 38.9312 145.79 37.3987 145.113 35.9173C144.845 35.317 144.628 34.704 144.411 34.091C144.066 33.1076 143.747 32.1243 143.44 31.1409C142.929 29.404 142.482 27.6416 142.125 25.8665C141.831 24.4106 141.601 22.9547 141.448 21.486C141.333 20.3494 141.256 19.2 141.243 18.0506C141.243 17.9995 141.269 17.5142 141.243 17.4887ZM172.813 40.1317C173.209 40.0168 173.605 39.9018 173.988 39.7997C179.25 38.8035 187.628 37.603 188.854 40.3105C189.85 42.5071 185.993 46.977 179.007 52.5579C177.322 48.203 175.24 44.0396 172.813 40.1317ZM153.478 69.735C141.92 76.6186 128.664 83.6299 115.535 89.5812C106.417 93.7318 96.8769 97.5631 87.5923 100.935C86.8899 98.6486 86.1237 96.3626 85.2425 94.0638C104.412 87.9209 122.598 79.4665 139.315 68.9176C143.095 66.5295 146.85 64.0136 150.502 61.3955C152.112 64.9969 153.095 67.615 153.478 69.735ZM108.409 9.3535C111.857 9.3535 115.254 9.60892 118.562 10.0942C115.242 16.1222 108.179 25.9175 95.3444 31.3197C79.3167 38.0756 64.4001 33.644 57.7592 30.8982C70.5685 17.6291 88.5502 9.3535 108.409 9.3535ZM54.7324 34.2315C58.7809 36.0322 67.2098 39.1228 77.6054 39.1228C83.5695 39.1228 90.1976 38.1011 97.0046 35.2276C111.921 28.9443 119.686 17.246 122.968 10.8733C127.361 11.8055 131.627 13.1337 135.688 14.8578C135.356 18.5742 135.42 26.9392 140.107 38.7652C140.311 39.2633 140.503 39.7613 140.733 40.2722C141.065 41.0895 141.422 41.9197 141.805 42.7753C142.559 44.3845 143.249 45.8914 143.913 47.3218C144.219 47.922 144.475 48.5223 144.756 49.0842C145.522 50.77 146.25 52.3153 146.927 53.7456C147.655 55.2526 148.293 56.6319 148.893 57.8962C145.1 60.6292 141.231 63.2345 137.31 65.7249C120.784 76.1588 102.777 84.4983 83.7993 90.5773C81.9859 86.3757 79.8148 82.2251 77.2223 78.2277C76.8902 77.7041 76.5326 77.1805 76.175 76.6697C74.5531 74.2687 72.7524 71.9061 70.7856 69.6584C70.4153 69.2114 70.0449 68.8027 69.6362 68.3685C67.4524 65.942 65.0387 63.6304 62.4334 61.4083C57.0695 56.9384 51.0288 53.1965 44.4262 50.2847C47.1337 44.4611 50.6074 39.0589 54.7324 34.2315ZM42.2551 55.508C48.3214 58.2155 53.8768 61.6509 58.7809 65.7632C60.8242 67.4873 62.7399 69.2752 64.5023 71.1526C64.8982 71.574 65.3069 72.0082 65.6772 72.4424C67.6567 74.6135 69.4702 76.9123 71.1049 79.275C71.4625 79.7986 71.8456 80.3349 72.1905 80.8841C76.788 87.8699 80.0191 95.3792 82.2668 102.825C77.2606 104.549 72.3693 106.132 67.7078 107.524C67.4524 105.098 67.0565 102.518 66.4435 99.8491C65.3452 94.9067 63.7105 90.4496 61.8715 86.5034C61.5777 85.8648 61.284 85.239 60.9647 84.6388C59.6365 82.0079 58.2189 79.607 56.7886 77.4742C56.4821 76.9889 56.15 76.5036 55.8308 76.0439C54.9879 74.8562 54.1577 73.7323 53.3659 72.7106C53.9662 73.86 54.5792 75.0988 55.1922 76.427C55.4221 76.9506 55.6647 77.4742 55.8946 77.9978C56.9163 80.3605 57.8997 82.9913 58.7809 85.8393C58.9852 86.5161 59.1895 87.193 59.3811 87.9082C60.3389 91.3436 61.0924 95.111 61.5522 99.1467C61.9609 102.748 62.0886 106.094 61.9864 109.172C56.1756 110.794 50.8117 112.071 46.1503 112.965C43.8387 108.61 41.9742 103.987 40.5949 99.1084C40.4289 98.572 40.2884 98.0612 40.1607 97.5375C40.1096 97.3587 40.0713 97.1544 40.0202 96.9501C39.3561 94.2682 38.8453 91.5607 38.4877 88.8021C38.4111 88.1508 38.3344 87.4867 38.2706 86.8354C38.0407 84.5111 37.9258 82.1868 37.9258 79.8369C37.9258 71.2931 39.4711 63.094 42.2551 55.508ZM40.7737 113.846C33.7624 114.766 29.1648 114.421 28.2708 112.441C27.2236 110.155 31.1316 106.056 35.4482 102.339C35.6397 102.212 35.8313 102.097 36.0229 101.982C37.2744 106.12 38.8708 110.066 40.7737 113.846ZM86.6473 146.91C76.4688 143.603 67.2353 138.047 59.6238 130.742C68.2314 128.763 77.2606 126.285 86.3025 123.437C87.2858 133.028 87.0687 141.393 86.6473 146.91ZM108.409 150.32C102.867 150.32 97.4388 149.694 92.2027 148.456C92.7007 142.53 93.0711 132.849 91.8068 121.662C102.266 118.201 112.624 114.217 122.278 109.925C134.769 104.37 147.872 97.4609 160.285 89.9515L169.429 115.085C157.233 136.144 134.462 150.32 108.409 150.32ZM172.967 108.163L165.215 86.9248C169.914 83.9747 174.499 80.9352 178.867 77.8957C178.893 78.5342 178.893 79.1983 178.893 79.8369C178.893 89.9132 176.773 99.4915 172.967 108.163ZM183.209 68.228C181.651 69.4157 180.067 70.6034 178.446 71.7911C173.746 75.2265 168.727 78.6747 163.452 82.0718C161.843 83.1318 160.208 84.1535 158.548 85.1752C146.543 92.6207 133.466 99.7342 120.35 105.622C110.912 109.862 101.015 113.655 91.1682 116.95C89.3547 117.563 87.5285 118.137 85.715 118.725C75.396 121.994 65.2302 124.663 55.703 126.694C54.6175 126.936 49.8795 127.869 49.8795 127.869C24.7333 132.658 5.3596 132.466 2.58829 125.749C-0.183027 119.057 13.4948 105.928 33.7241 92.046C34.0689 94.332 34.5542 96.5925 35.1289 98.8402C35.2311 99.2489 35.346 99.6448 35.4737 100.053C34.6308 100.654 33.839 101.216 33.1238 101.778C28.1815 105.545 23.8904 109.606 25.6911 113.999C27.3386 117.997 32.6258 117.997 34.6181 117.997C36.7508 117.997 39.4455 117.741 42.6 117.282C44.9754 116.95 48.0532 116.337 48.0532 116.337C57.5548 114.485 69.8789 111.151 83.314 106.592C85.0764 105.992 86.8644 105.379 88.6523 104.728C97.9496 101.42 107.643 97.5631 117.196 93.2465C129.469 87.7038 142.508 80.8586 154.398 73.7962C156.071 72.7873 157.705 71.7911 159.34 70.7822C161.626 69.3902 163.835 67.9726 165.968 66.5678C169.187 64.4605 172.66 62.1107 175.981 59.6969C177.462 58.5986 178.956 57.4748 180.374 56.3509C185.865 51.996 190.297 47.6922 191.472 44.4483C192.213 42.3794 191.817 40.7958 191.344 39.8252C190.246 37.552 187.845 36.4153 184.205 36.4153C181.217 36.4409 176.926 37.1944 171.766 38.4842C170.489 36.5303 169.135 34.6402 167.667 32.8267C190.872 27.4373 209.045 26.3262 212.097 32.7245C215.162 39.1611 202.813 53.1965 183.209 68.228Z" fill="url(#paint5_linear_1004_13911)"/>
<path d="M82.0625 75.38C82.1647 75.4056 82.2541 75.4183 82.3562 75.4311C82.4584 75.4439 82.5478 75.4566 82.65 75.4822C82.65 75.4822 82.6627 75.4822 82.6627 75.4694C82.7649 75.4183 82.8543 75.3672 82.9437 75.3162C82.3818 75.3672 82.0625 75.38 82.0625 75.38Z" fill="url(#paint6_linear_1004_13911)"/>
<path d="M183.21 68.2279C181.652 69.4156 180.068 70.6033 178.446 71.7911C173.746 75.2265 168.727 78.6746 163.453 82.0717C161.844 83.1317 160.209 84.1534 158.549 85.1751C146.544 92.6206 133.466 99.7341 120.351 105.622C110.913 109.862 101.015 113.655 91.1687 116.949C89.3552 117.562 87.5289 118.137 85.7155 118.725C75.3965 121.994 65.2307 124.663 55.7035 126.694C54.618 126.936 49.8799 127.869 49.8799 127.869C24.7337 132.658 5.36007 132.466 2.58876 125.749C-0.18256 119.057 13.4952 105.928 33.7246 92.0459C34.0694 94.3319 34.5547 96.5924 35.1294 98.8401C35.2315 99.2488 35.3465 99.6447 35.4742 100.053C34.6313 100.654 33.8395 101.216 33.1243 101.777C28.1819 105.545 23.8909 109.606 25.6916 113.999C27.339 117.997 32.6262 117.997 34.6185 117.997C36.7513 117.997 39.446 117.741 42.6004 117.281C44.9758 116.949 48.0537 116.336 48.0537 116.336C57.5553 114.485 69.8794 111.151 83.3145 106.592C85.0769 105.992 86.8648 105.379 88.6528 104.728C97.9501 101.42 107.643 97.563 117.196 93.2464C129.469 87.7038 142.508 80.8585 154.398 73.7961C156.071 72.7872 157.706 71.7911 159.34 70.7821C161.626 69.3901 163.836 67.9725 165.969 66.5677C169.187 64.4605 172.661 62.1106 175.981 59.6969C177.463 58.5986 178.957 57.4747 180.374 56.3509C185.866 51.9959 190.297 47.6921 191.472 44.4483C192.213 42.3794 191.817 40.7957 191.345 39.8251C190.246 37.5519 187.845 36.4153 184.206 36.4153C181.217 36.4408 176.926 37.1943 171.767 38.4842C170.49 36.5302 169.136 34.6401 167.667 32.8266C190.872 27.4372 209.045 26.3262 212.098 32.7244C215.163 39.1611 202.813 53.1964 183.21 68.2279Z" fill="url(#paint7_linear_1004_13911)"/>
<defs>
<linearGradient id="paint0_linear_1004_13911" x1="912.041" y1="138.317" x2="869.107" y2="138.317" gradientUnits="userSpaceOnUse">
<stop/>
<stop offset="1" stop-opacity="0"/>
</linearGradient>
<linearGradient id="paint1_linear_1004_13911" x1="265.077" y1="138.58" x2="308.011" y2="138.58" gradientUnits="userSpaceOnUse">
<stop/>
<stop offset="1" stop-opacity="0"/>
</linearGradient>
<linearGradient id="paint2_linear_1004_13911" x1="104.77" y1="29.7625" x2="124.756" y2="29.7625" gradientUnits="userSpaceOnUse">
<stop stop-color="#EFA2C8"/>
<stop offset="1" stop-color="#520D2D"/>
</linearGradient>
<linearGradient id="paint3_linear_1004_13911" x1="57.874" y1="48.3951" x2="114.373" y2="48.3951" gradientUnits="userSpaceOnUse">
<stop stop-color="#EFA2C8"/>
<stop offset="1" stop-color="#520D2D"/>
</linearGradient>
<linearGradient id="paint4_linear_1004_13911" x1="82.0497" y1="72.7102" x2="122.623" y2="72.7102" gradientUnits="userSpaceOnUse">
<stop stop-color="#EFA2C8"/>
<stop offset="1" stop-color="#520D2D"/>
</linearGradient>
<linearGradient id="paint5_linear_1004_13911" x1="-0.00423231" y1="79.8496" x2="217.001" y2="79.8496" gradientUnits="userSpaceOnUse">
<stop stop-color="#EFA2C8"/>
<stop offset="1" stop-color="#520D2D"/>
</linearGradient>
<linearGradient id="paint6_linear_1004_13911" x1="82.0625" y1="75.3928" x2="82.9437" y2="75.3928" gradientUnits="userSpaceOnUse">
<stop stop-color="#EFA2C8"/>
<stop offset="1" stop-color="#520D2D"/>
</linearGradient>
<linearGradient id="paint7_linear_1004_13911" x1="2.23117" y1="79.7602" x2="212.557" y2="79.7602" gradientUnits="userSpaceOnUse">
<stop stop-color="#EFA2C8"/>
<stop offset="1" stop-color="#520D2D"/>
</linearGradient>
</defs>
</svg>
