<svg width="159" height="159" viewBox="0 0 159 159" fill="none" xmlns="http://www.w3.org/2000/svg">
<path d="M42.7153 31.5969C41.2596 30.684 40.7661 30.906 40.6181 32.5591C40.4454 34.4343 39.7545 36.112 38.9897 37.7898C37.682 40.6272 36.6458 43.5139 36.9418 46.7461C37.1392 48.8927 37.8794 50.8665 38.817 52.791C39.9766 55.1596 41.1856 57.4789 41.5804 60.1435C41.6544 60.6123 41.679 61.0811 41.5804 61.5499C41.4817 61.994 41.5063 62.4381 41.7531 62.8082C42.6906 64.2146 43.6529 65.621 44.6151 67.0273C44.7385 67.2 44.8619 67.3974 45.2566 67.274C44.8372 64.2886 43.2581 61.5746 42.962 58.4905C43.6035 58.5645 43.6035 59.0086 43.6776 59.3047C44.3191 61.698 45.6021 63.7211 47.2058 65.5716C47.7486 66.2131 48.2174 66.8793 48.7108 67.5454C49.4757 68.6064 49.9939 69.7414 50.0679 71.123C50.2406 74.0098 51.9184 75.8849 54.3857 77.1432C57.0997 78.5003 59.9618 79.4379 62.7745 80.5481C65.1431 81.4857 67.561 82.3493 69.9296 83.2622C70.5711 83.5089 71.2373 83.805 71.9035 83.7556C73.0631 83.6816 73.8033 84.2738 74.4448 85.1126C74.6669 85.4087 74.9136 85.6801 75.0616 86.0009C76.616 89.3564 79.8975 90.4667 82.8336 91.9717C83.5738 92.3418 84.24 92.0211 84.7581 91.4289C85.3503 90.7628 85.9671 90.7628 86.6826 91.1822C86.88 91.2809 87.0774 91.3796 87.2501 91.4783C90.1122 93.0574 90.655 95.4506 88.8045 98.1647C87.3981 100.213 85.9424 102.285 85.4243 104.752C84.7581 107.91 84.7828 110.945 87.3981 113.437C89.0019 114.967 90.2355 116.793 91.2225 118.767C92.3081 120.913 93.9858 122.542 96.083 123.578C99.932 125.478 100.82 128.414 99.8333 132.88C99.0191 136.507 97.3907 139.788 95.6636 143.045C93.8871 146.376 93.221 149.855 93.6897 153.605C93.8378 154.789 94.1339 155.924 94.9481 156.886C58.0373 164.905 13.9466 143.218 3.06579 98.066C-7.86436 52.6183 22.3354 9.83528 65.7352 2.18665C112.441 -6.02946 153.769 27.5505 157.988 71.8632C162.355 117.681 128.849 150.249 97.1686 156.368C98.3776 154.765 99.1672 152.963 100.253 151.36C101.314 149.805 102.646 148.498 104.299 147.511C109.258 144.55 113.946 141.17 118.437 137.543C120.164 136.136 121.472 134.36 122.755 132.584C124.309 130.437 125.962 128.438 128.281 127.007C129.712 126.119 130.699 124.639 131.711 123.282C135.486 118.15 138.792 112.746 141.013 106.751C141.309 105.937 141.555 105.098 141.728 104.259C142.197 102.088 141.506 100.755 139.458 99.8424C137.879 99.1269 136.226 98.9049 134.524 98.7815C132.574 98.6335 130.625 98.5348 128.701 98.3621C126.826 98.1893 126.11 97.4738 125.814 95.5987C125.74 95.1299 125.666 94.6858 125.617 94.217C125.419 92.6132 124.531 91.5523 123.075 91.0095C122.014 90.59 120.904 90.2693 119.794 89.9979C116.488 89.1837 113.379 87.876 110.418 86.1983C108.617 85.1867 106.742 84.3971 104.694 84.027C102.177 83.5829 99.9814 84.2738 97.9335 85.6061C96.6505 86.4203 95.3675 87.2592 94.2326 88.2214C91.8146 90.294 89.0759 90.3433 86.1892 89.8005C85.671 89.7018 85.1282 89.5785 84.6101 89.4304C81.6987 88.5669 80.2923 86.8891 79.9716 83.879C79.5274 79.7586 78.1951 78.2042 74.2228 77.2913C73.6553 77.1679 73.5319 76.9459 73.7293 76.4031C74.124 75.3175 74.5435 74.2318 74.5682 73.0722C74.5682 72.3814 74.5682 71.6905 73.8527 71.2711C73.2112 70.8763 72.6437 71.2711 72.1502 71.5918C71.262 72.1346 70.4231 72.7515 69.5596 73.3436C68.696 73.9358 67.8078 74.5032 66.8208 74.8733C64.921 75.5889 63.2926 75.1941 62.1577 73.5163C59.3203 69.3713 59.4683 64.9054 64.0575 61.8953C67.5364 59.6007 71.3853 58.7865 75.5057 59.8228C77.4549 60.3163 78.9846 61.5006 80.391 62.9069C80.8845 63.4004 81.3779 63.8692 81.8714 64.338C82.2168 64.634 82.6362 64.8068 83.0557 64.5107C83.4504 64.2393 83.4011 63.8198 83.3024 63.4251C82.957 62.3148 82.6362 61.2292 82.2168 60.1435C81.4766 58.2437 81.8467 56.64 83.3271 55.2336C84.388 54.2467 85.375 53.2104 86.3866 52.1742C86.954 51.6067 87.1761 50.9405 87.1021 50.1016C86.9787 48.5966 86.8553 47.0915 87.2254 45.5865C87.7189 43.514 88.9772 42.1569 91.0251 41.5895C91.5679 41.4414 92.0367 41.3674 91.6666 40.5532C91.3705 39.887 91.5185 39.2208 92.234 38.7767C92.5301 38.604 92.8015 38.3079 93.0236 38.0365C93.6651 37.2717 94.3313 37.0496 95.1455 37.7405C95.2935 37.8638 95.4662 38.1352 95.6883 38.0119C96.8726 37.4197 98.1062 36.8276 98.8711 35.6679C99.2165 35.1498 98.8711 34.7797 98.4023 34.533C97.7608 34.1875 97.0946 33.9408 96.4778 33.5707C95.2935 32.8799 95.1948 32.1397 96.1077 31.1281C97.3167 29.7958 98.8958 29.0062 100.524 27.9946C97.3907 25.5026 94.4299 22.8626 90.8277 21.1108C90.2109 20.8148 89.4953 20.5927 88.8292 20.9135C87.5955 21.4563 86.5099 21.0862 85.4736 20.42C84.5361 19.8032 83.4998 19.3837 82.3895 19.1617C80.8845 18.8409 80.2676 19.4331 80.539 20.9381C80.8104 22.6406 81.2792 24.3183 81.2299 26.0701C81.1805 28.1673 80.1689 28.8582 78.3925 27.7726C75.6538 26.0948 72.9891 24.343 70.2504 22.6653C69.2635 22.0484 69.2881 21.4563 70.201 20.6914C71.41 19.7045 72.7917 18.989 74.1487 18.2488C74.8149 17.9034 75.4071 17.5579 74.9876 16.5957C74.7656 16.0529 75.333 15.7075 75.6538 15.3374C75.8512 15.1153 76.2953 14.9426 76.1226 14.5725C75.9745 14.2764 75.5551 14.3258 75.2343 14.3258C74.3708 14.3504 73.5072 14.4491 72.6437 14.4245C70.5712 14.3504 68.9674 13.2648 67.5117 11.9078C65.9573 10.4521 64.1068 9.93398 62.059 9.98333C61.7382 9.98333 61.4175 10.0327 61.0967 10.1067C60.6526 10.2054 60.1098 10.2301 59.9371 10.7482C59.7644 11.291 60.2578 11.5624 60.5539 11.9078C60.776 12.1792 61.2201 12.426 61.0227 12.7961C60.8006 13.2155 60.3072 13.0181 59.9371 12.9441C57.8892 12.5 55.8907 11.8338 54.0156 10.9456C50.2899 9.19379 46.9097 9.53922 43.5789 12.0065C40.3467 14.4245 36.7691 16.349 33.5863 18.8409C32.6241 19.5811 31.6865 20.3707 31.045 21.8264C31.8345 21.4316 32.3527 21.1602 32.8708 20.8888C34.82 19.9019 36.7938 18.9396 38.9897 18.5202C40.7908 18.1748 41.531 18.6929 41.8764 20.494C42.2219 22.2951 41.9751 24.0963 41.9011 25.8974C41.8271 27.8219 41.9011 29.7217 42.814 31.6709L42.7153 31.5969ZM83.7712 3.17357C82.7103 3.05021 81.5753 4.03714 80.5884 5.32013C80.1443 5.88761 79.7742 6.50443 80.1196 7.21995C80.465 7.93546 81.1312 8.18218 81.8961 8.23153C82.8336 8.30555 83.7712 8.37958 84.6841 8.55229C87.5708 9.11977 89.8901 10.7729 92.1107 12.574C94.4299 14.4738 96.8972 16.1516 99.5866 17.5086C100.228 17.8293 100.894 18.1254 101.585 18.2981C102.794 18.6189 103.436 17.9034 103.016 16.7437C102.745 16.0529 102.35 15.3867 101.98 14.7205C101.412 13.709 100.746 12.6974 100.697 11.5377C100.574 8.74967 98.8711 7.21994 96.6752 5.96162C95.0961 5.07339 93.3197 4.95003 91.5926 4.57994C89.2239 4.08648 86.9293 3.34628 83.7712 3.12422V3.17357ZM75.7525 10.9949V11.0443C75.2097 11.0443 74.6669 11.0443 74.1241 11.0443C73.828 11.0443 73.5072 11.1183 73.4085 11.4144C73.3098 11.7351 73.5812 11.9325 73.8033 12.1052C74.5928 12.6727 75.4811 12.8947 76.4433 12.9688C77.6276 13.0675 78.8119 13.2402 79.9222 13.6596C81.7727 14.3504 82.1181 15.4361 80.8598 16.9411C80.1689 17.78 80.6377 17.9527 81.3039 18.1501C82.883 18.5695 84.4867 18.6682 86.1152 18.7916C86.9047 18.8409 87.6942 18.6436 87.9656 17.8047C88.237 16.9658 88.2864 15.9789 87.4968 15.4114C85.0049 13.6596 82.5129 11.8585 79.4041 11.291C78.1951 11.0689 76.9614 11.0689 75.7525 10.9949ZM82.4389 69.2232C81.7233 69.2479 80.9091 69.1985 80.1936 69.618C79.8235 69.84 79.5521 70.1361 79.6508 70.5802C79.7495 70.975 80.1196 70.975 80.4403 70.9997C83.8699 71.3204 87.028 72.4554 89.9395 74.2565C92.9742 76.1563 96.0583 76.0083 99.1672 74.4539C99.3892 74.3552 99.6853 74.2565 99.6853 73.9604C99.6853 73.689 99.3892 73.5657 99.1672 73.467C97.9582 72.9242 96.7492 72.7268 95.5402 73.393C94.504 73.9604 93.5664 73.8371 92.6042 73.2449C91.4445 72.5294 90.2355 71.8632 89.0266 71.2464C86.954 70.2101 84.8568 69.2479 82.4389 69.1739V69.2232ZM73.6059 9.04574C74.9876 9.04574 76.6654 8.62631 77.7016 8.03416C78.5652 7.5407 79.2561 6.87453 79.6015 5.91228C79.7742 5.39415 79.8729 4.85134 79.3794 4.40723C78.2938 3.46965 73.9513 4.65395 73.6553 6.03563C73.4826 6.77582 73.2358 7.39266 72.6683 7.86145C72.4463 8.03416 72.1749 8.23155 72.2982 8.57697C72.4216 8.89772 72.767 8.87303 73.0384 8.94705C73.2852 9.02107 73.5319 9.02108 73.6306 9.02108L73.6059 9.04574Z" fill="black"/>
</svg>
